<?xml version="1.0" encoding="UTF-8" standalone="no"?>
<!-- Created with Inkscape (http://www.inkscape.org/) -->

<svg
   width="599.65454mm"
   height="108.73044mm"
   viewBox="0 0 599.65455 108.73043"
   version="1.1"
   id="svg1"
   xmlns="http://www.w3.org/2000/svg"
   xmlns:svg="http://www.w3.org/2000/svg">
  <defs
     id="defs1">
    <clipPath
       clipPathUnits="userSpaceOnUse"
       id="clipPath36-1-4">
      <path
         d="M 0,160 H 160 V 0 H 0 Z"
         transform="translate(-97.348,-124.995)"
         id="path36-7-5" />
    </clipPath>
  </defs>
  <g
     id="layer1"
     transform="translate(-66.836828,-36.914383)">
    <g
       id="g314"
       style="display:inline;stroke:#d6c17c;stroke-width:3.39934;stroke-dasharray:none;stroke-opacity:1"
       transform="matrix(0.93735078,0,0,0.93735078,43.817153,35.847225)">
      <circle
         style="display:none;fill:none;stroke:#d6c17c;stroke-width:3.39934;stroke-dasharray:none;stroke-opacity:1"
         id="circle290"
         cx="121.75481"
         cy="56.678959"
         r="54.387882" />
      <circle
         style="display:none;fill:none;stroke:#d6c17c;stroke-width:3.39934;stroke-dasharray:none;stroke-opacity:1"
         id="circle291"
         cx="121.75481"
         cy="56.678959"
         r="62.283211" />
      <g
         id="g342"
         transform="translate(3.870211,-2.9686342)"
         style="stroke:#d6c17c;stroke-width:3.39934;stroke-dasharray:none;stroke-opacity:1">
        <g
           id="g298"
           transform="rotate(-116.30281,84.604001,79.311184)"
           style="stroke:#d6c17c;stroke-width:3.39934;stroke-dasharray:none;stroke-dashoffset:0;stroke-opacity:1">
          <path
             style="fill:none;stroke:#d6c17c;stroke-width:3.39934;stroke-linecap:round;stroke-dasharray:none;stroke-dashoffset:0;stroke-opacity:1"
             id="path293"
             d="M 87.625006,99.025133 A 54.387882,54.387882 0 0 1 75.803347,85.773719" />
          <path
             style="display:inline;fill:none;stroke:#d6c17c;stroke-width:3.39934;stroke-linecap:round;stroke-dasharray:none;stroke-dashoffset:0;stroke-opacity:1"
             id="path294"
             d="M 81.655267,104.33633 A 62.283211,62.283211 0 0 1 59.472214,56.401364 62.283211,62.283211 0 0 1 82.081672,8.6660366" />
          <path
             style="fill:none;stroke:#d6c17c;stroke-width:3.39934;stroke-linecap:round;stroke-dasharray:none;stroke-dashoffset:0;stroke-opacity:1"
             id="path295"
             d="M 67.823995,63.715245 A 54.387882,54.387882 0 0 1 82.706241,18.820654" />
          <path
             style="fill:none;stroke:#d6c17c;stroke-width:3.39934;stroke-linecap:round;stroke-dasharray:none;stroke-dashoffset:0;stroke-opacity:1"
             id="path296"
             d="M 141.31967,107.42596 A 54.387882,54.387882 0 0 1 94.20601,103.57358" />
          <path
             style="display:inline;fill:none;stroke:#d6c17c;stroke-width:3.39934;stroke-linecap:round;stroke-dasharray:none;stroke-dashoffset:0;stroke-opacity:1"
             id="path297"
             d="M 121.2618,118.96022 A 62.283211,62.283211 0 0 1 88.251143,109.18327" />
          <path
             style="display:inline;fill:none;stroke:#d6c17c;stroke-width:3.39934;stroke-linecap:round;stroke-dasharray:none;stroke-dashoffset:0;stroke-opacity:1"
             id="path298"
             d="m 150.46416,111.95075 a 62.283211,62.283211 0 0 1 -19.16378,6.27559" />
          <circle
             style="display:none;fill:#780000;fill-opacity:0.160183;stroke:#d6c17c;stroke-width:3.39934;stroke-linecap:round;stroke-dasharray:none;stroke-dashoffset:0;stroke-opacity:1"
             id="path317"
             cx="121.75481"
             cy="56.678959"
             r="54.387882" />
        </g>
        <g
           id="g303"
           transform="rotate(121.36659,85.346644,77.648961)"
           style="stroke:#d6c17c;stroke-width:3.39934;stroke-dasharray:none;stroke-dashoffset:0;stroke-opacity:1">
          <path
             style="fill:none;stroke:#d6c17c;stroke-width:3.39934;stroke-linecap:round;stroke-dasharray:none;stroke-dashoffset:0;stroke-opacity:1"
             id="path299"
             d="m 139.26288,108.17176 a 54.387882,54.387882 0 0 1 -47.162791,-5.9007" />
          <path
             style="display:inline;fill:none;stroke:#d6c17c;stroke-width:3.39934;stroke-linecap:round;stroke-dasharray:none;stroke-dashoffset:0;stroke-opacity:1"
             id="path300"
             d="M 60.074181,48.036112 A 62.283211,62.283211 0 0 1 84.009933,7.1358175" />
          <path
             style="display:inline;fill:none;stroke:#d6c17c;stroke-width:3.39934;stroke-linecap:round;stroke-dasharray:none;stroke-dashoffset:0;stroke-opacity:1"
             id="path301"
             d="M 148.19484,113.07154 A 62.283211,62.283211 0 0 1 85.945847,107.63891" />
          <path
             style="display:inline;fill:none;stroke:#d6c17c;stroke-width:3.39934;stroke-linecap:round;stroke-dasharray:none;stroke-dashoffset:0;stroke-opacity:1"
             id="path302"
             d="M 79.582954,102.51271 A 62.283211,62.283211 0 0 1 59.608019,60.79905" />
          <path
             style="fill:none;stroke:#d6c17c;stroke-width:3.39934;stroke-linecap:round;stroke-dasharray:none;stroke-dashoffset:0;stroke-opacity:1"
             id="path303"
             d="M 85.744215,97.43775 A 54.387882,54.387882 0 0 1 67.376933,57.722327 54.387882,54.387882 0 0 1 84.207189,17.331555" />
          <circle
             style="display:none;fill:#780000;fill-opacity:0.160183;stroke:#d6c17c;stroke-width:3.39934;stroke-linecap:round;stroke-dasharray:none;stroke-dashoffset:0;stroke-opacity:1"
             id="path318"
             cx="121.75481"
             cy="56.678959"
             r="54.387882" />
        </g>
        <g
           id="g315"
           style="stroke:#d6c17c;stroke-width:3.39934;stroke-dasharray:none;stroke-dashoffset:0;stroke-opacity:1">
          <path
             style="fill:none;fill-opacity:1;stroke:#d6c17c;stroke-width:3.39934;stroke-linecap:round;stroke-dasharray:none;stroke-dashoffset:0;stroke-opacity:1"
             d="M 66.391587,85.391633 C 61.042139,91.759839 84.440633,100.2698 94.285268,84.348394"
             id="path305" />
          <path
             style="fill:none;fill-opacity:1;stroke:#d6c17c;stroke-width:3.39934;stroke-linecap:round;stroke-dasharray:none;stroke-dashoffset:0;stroke-opacity:1"
             d="m 63.012152,77.85957 c -6.018791,3.584262 -5.963866,10.402992 -3.781128,14.75598 2.667699,5.320134 8.930342,7.92915 16.352494,8.54655 8.340725,0.69381 17.163926,-2.183021 21.755129,-7.310328"
             id="path306" />
        </g>
        <g
           id="g316"
           transform="translate(-1,9.375)"
           style="stroke:#d6c17c;stroke-width:3.39934;stroke-dasharray:none;stroke-dashoffset:0;stroke-opacity:1">
          <path
             id="path308"
             d="M 0,0 C 0.376,-2.827 -2.45,-3.072 -1.989,0 Z"
             style="display:inline;fill:#d6c17c;fill-opacity:1;fill-rule:nonzero;stroke:#d6c17c;stroke-width:1.20406;stroke-dasharray:none;stroke-dashoffset:0;stroke-opacity:1"
             transform="matrix(1.0650163,0,0,-1.0650163,111.99363,12.151138)"
             clip-path="url(#clipPath36-1-4)" />
          <path
             style="fill:none;fill-opacity:1;stroke:#d6c17c;stroke-width:3.39934;stroke-linecap:round;stroke-dasharray:none;stroke-dashoffset:0;stroke-opacity:1"
             d="m 114.11246,55.065713 c 9.52186,4.646111 22.53028,-11.679665 7.23799,-30.123422 -1.34409,-1.296638 -3.2898,-0.990855 -5.72085,-1.158784 -7.09657,-0.490208 -15.61624,-7.207529 -16.78018,-10.518133 -0.66709,-1.52912 0.17503,-2.680304 3.72281,-3.039522 3.13874,-0.317803 4.60889,-1.466874 9.29399,-1.47094 5.5804,-0.0048 9.76536,2.613759 12.44449,6.746138 0.85807,1.323513 1.49944,2.589597 2.45179,3.930786 10.34925,11.770091 10.74304,23.570406 7.4506,31.817094 -3.52137,8.820112 -13.49121,15.794677 -22.07456,11.725358"
             id="path307" />
        </g>
        <g
           id="g313"
           transform="translate(-0.37109334,-0.55664001)"
           style="display:inline;stroke:#d6c17c;stroke-width:3.39934;stroke-dasharray:none;stroke-opacity:1">
          <path
             style="fill:none;stroke:#d6c17c;stroke-width:3.39934;stroke-linecap:round;stroke-dasharray:none;stroke-dashoffset:0;stroke-opacity:1"
             id="path312"
             d="M 81.879039,93.664969 A 54.387882,54.387882 0 0 1 67.412284,54.458147 54.387882,54.387882 0 0 1 85.029979,16.562518" />
          <path
             style="display:inline;fill:none;stroke:#d6c17c;stroke-width:3.39934;stroke-linecap:round;stroke-dasharray:none;stroke-dashoffset:0;stroke-opacity:1"
             id="path313"
             d="M 70.980622,92.75084 A 62.283211,62.283211 0 0 1 85.045683,6.3635678" />
          <g
             id="g292"
             style="display:inline;stroke:#d6c17c;stroke-width:3.39934;stroke-dasharray:none;stroke-dashoffset:0;stroke-opacity:1">
            <path
               style="fill:none;stroke:#d6c17c;stroke-width:3.39934;stroke-linecap:round;stroke-dasharray:none;stroke-dashoffset:0;stroke-opacity:1"
               id="path291"
               d="M 137.81821,108.64057 A 54.387882,54.387882 0 0 1 91.203741,101.67534" />
            <path
               style="display:inline;fill:none;stroke:#d6c17c;stroke-width:3.39934;stroke-linecap:round;stroke-dasharray:none;stroke-dashoffset:0;stroke-opacity:1"
               id="path292"
               d="M 146.61741,113.78456 A 62.283211,62.283211 0 0 1 84.930512,106.91012" />
          </g>
          <circle
             style="display:none;fill:#780000;fill-opacity:0.160183;stroke:#d6c17c;stroke-width:3.39934;stroke-linecap:round;stroke-dasharray:none;stroke-dashoffset:0;stroke-opacity:1"
             id="path316"
             cx="121.75481"
             cy="56.678959"
             r="54.387882" />
        </g>
      </g>
    </g>
  </g>
  <g
     id="layer2"
     transform="translate(-52.994203,-25.081948)">
    <text
       xml:space="preserve"
       style="font-size:35.2778px;font-family:verdana;-inkscape-font-specification:verdana;text-align:start;writing-mode:lr-tb;direction:ltr;text-anchor:start;display:inline;fill:#d6c17c;fill-opacity:1;stroke:#000000;stroke-width:2.64584;stroke-linecap:round;stroke-dasharray:none;stroke-dashoffset:0;stroke-opacity:1"
       x="194.36458"
       y="70.619293"
       id="text3"><tspan
         id="tspan3"
         style="font-size:35.2778px;fill:#d6c17c;fill-opacity:1;stroke:none;stroke-width:2.64584"
         x="194.36458"
         y="70.619293">Center for Pharmaceutical</tspan><tspan
         style="font-size:35.2778px;fill:#d6c17c;fill-opacity:1;stroke:none;stroke-width:2.64584"
         x="194.36458"
         y="114.71655"
         id="tspan4">Data Science Education</tspan></text>
  </g>
</svg>
